# xmcd
#
# Track frame offsets: 
#        150
#        15990
#        31318
#        47050
#        61387
#        74192
#        87653
#        100756
#        118708
#        132986
#
# Disc length: 1968 seconds
#
# Revision: 3
# Processed by: cddbd v1.5.2PL0 Copyright (c) Steve Scherf et al.
# Submitted via: ExactAudioCopyFreeDBPlugin 1.0
#
DISCID=8b07ae0a
DTITLE=The Judds - Why Not Me
DYEAR=1984
DGENRE=Country
TTITLE0=Why Not Me
TTITLE1=Mr. Pain
TTITLE2=Drops Of Water
TTITLE3=Sleeping Heart
TTITLE4=My Baby's Gone
TTITLE5=Bye Bye Baby Blues
TTITLE6=Girls Night Out
TTITLE7=Love Is Alive
TTITLE8=Endless Sleep
TTITLE9=Mama He's Crazy
EXTD=
EXTT0=
EXTT1=
EXTT2=
EXTT3=
EXTT4=
EXTT5=
EXTT6=
EXTT7=
EXTT8=
EXTT9=
PLAYORDER=
